<?xml version="1.0" encoding="utf-8"?>
<!-- Generator: Adobe Illustrator 21.0.0, SVG Export Plug-In . SVG Version: 6.00 Build 0)  -->
<svg version="1.1" id="Layer_1" xmlns="http://www.w3.org/2000/svg" xmlns:xlink="http://www.w3.org/1999/xlink" x="0px" y="0px"
	 viewBox="0 0 400 100" style="enable-background:new 0 0 400 100;" xml:space="preserve">
<style type="text/css">
	.st0{fill:#CCCCCC;stroke:#000000;stroke-width:8;stroke-miterlimit:10;}
	.st1{fill:#95CACE;stroke:#000000;stroke-width:4;stroke-miterlimit:10;}
</style>
<polyline class="st0" points="4,100 4,20 396,20 396,100 "/>
<rect x="86" y="40" class="st1" width="40" height="40"/>
<rect x="186" y="40" class="st1" width="40" height="40"/>
<rect x="286" y="40" class="st1" width="40" height="40"/>
<g>
	<path d="M100,16.1l1.6-0.6l1.6-0.6l3.1-1.1c2.1-0.7,4.2-1.4,6.3-2c4.2-1.2,8.3-2.3,12.5-3.3c8.3-1.9,16.7-3.3,25-4.5
		c16.7-2.2,33.3-3.3,50-3.3c16.7,0,33.3,1.1,50,3.3c8.3,1.2,16.7,2.6,25,4.5c4.2,1,8.3,2,12.5,3.2c2.1,0.6,4.2,1.3,6.3,1.9l3.1,1.1
		l1.6,0.6l1.6,0.6v1.8l-25,0.4l-25,0.3c-16.7,0.1-33.3,0.1-50,0.2c-16.7-0.1-33.3-0.1-50-0.2l-25-0.3l-25-0.4V16.1z"/>
</g>
</svg>
